<?xml version="1.0" encoding="utf-8"?>
<!-- Generator: Adobe Illustrator 23.0.1, SVG Export Plug-In . SVG Version: 6.00 Build 0)  -->
<svg version="1.1" id="Layer_1" xmlns="http://www.w3.org/2000/svg" xmlns:xlink="http://www.w3.org/1999/xlink" x="0px" y="0px"
	 width="358.454px" height="128px" viewBox="0 0 358.454 128" enable-background="new 0 0 358.454 128" xml:space="preserve">
<g>
	<g>
		<defs>
			<path id="SVGID_1_" d="M115.926,12.791l-1.733,14.603l-9.334,78.784l-0.831,7.009l135.168,0.124
				c15.354,0,29.974-2.997,43.18-8.468c14.443-5.983,27.207-14.92,37.425-26.163c15.734-17.316,25.413-40.078,25.872-65.808
				L115.926,12.791z"/>
		</defs>
		<clipPath id="SVGID_2_">
			<use xlink:href="#SVGID_1_"  overflow="visible"/>
		</clipPath>
		
			<linearGradient id="SVGID_3_" gradientUnits="userSpaceOnUse" x1="24.9923" y1="7342.542" x2="31.1538" y2="7342.542" gradientTransform="matrix(39.4643 0 0 -39.4643 -883.1019 289831.25)">
			<stop  offset="0" style="stop-color:#E2011A"/>
			<stop  offset="0.6667" style="stop-color:#9A151E"/>
			<stop  offset="1" style="stop-color:#9A151E"/>
		</linearGradient>
		<rect x="104.028" y="12.791" clip-path="url(#SVGID_2_)" fill="url(#SVGID_3_)" width="241.645" height="100.519"/>
	</g>
	<g>
		<path fill="#DADADA" d="M345.696,11.388c-0.239,58.454-47.97,101.924-106.503,101.924l-136.397-0.124v12.896h253.746V11.388
			H345.696z"/>
		<path fill="#1D1D1B" d="M241.115,115.237l-137.316-0.124L115.926,12.79l231.701,0.08
			C347.626,71.545,299.789,115.237,241.115,115.237 M0.955,128h357.5V0.955H0.955V128z"/>
	</g>
	<g>
		<defs>
			<path id="SVGID_4_" d="M0,0v127.045h357.5V0.963V0H0z M346.654,12.869c-0.23,26.65-10.359,50.164-26.853,67.815l0,0
				c-9.52,10.173-21.134,18.393-34.207,24.157h0c-13.798,6.091-29.205,9.431-45.433,9.431l-136.247-0.114l-1.07-0.008l0.937-7.973
				l9.343-78.784l1.847-15.566l231.692,0.079C346.663,12.225,346.663,12.552,346.654,12.869z"/>
		</defs>
		<clipPath id="SVGID_5_">
			<use xlink:href="#SVGID_4_"  overflow="visible"/>
		</clipPath>
		
			<radialGradient id="SVGID_6_" cx="27.4392" cy="7658.8301" r="6.8325" gradientTransform="matrix(13.4273 0 0 -13.4273 -235.009 102839.9844)" gradientUnits="userSpaceOnUse">
			<stop  offset="0" style="stop-color:#89B9E0"/>
			<stop  offset="0.1009" style="stop-color:#89B9E0"/>
			<stop  offset="1" style="stop-color:#012C52"/>
		</radialGradient>
		<rect x="0" y="0" clip-path="url(#SVGID_5_)" fill="url(#SVGID_6_)" width="357.5" height="127.046"/>
	</g>
	<g>
		<defs>
			<polygon id="SVGID_7_" points="12.578,28.471 11.199,40.059 29.868,40.059 22.955,97.832 35.489,97.832 42.41,40.059 
				61.591,40.059 62.979,28.471 			"/>
		</defs>
		<clipPath id="SVGID_8_">
			<use xlink:href="#SVGID_7_"  overflow="visible"/>
		</clipPath>
		
			<linearGradient id="SVGID_9_" gradientUnits="userSpaceOnUse" x1="-2069.7942" y1="7167.1992" x2="-2060.9551" y2="7167.1992" gradientTransform="matrix(0 3.0534 3.0534 0 -21847.5742 6388.4072)">
			<stop  offset="0" style="stop-color:#FFFFFF"/>
			<stop  offset="1" style="stop-color:#C6C7C8"/>
		</linearGradient>
		<rect x="11.199" y="28.47" clip-path="url(#SVGID_8_)" fill="url(#SVGID_9_)" width="51.78" height="69.362"/>
	</g>
	<g>
		<defs>
			<path id="SVGID_10_" d="M51.25,67.426c0,15.15,8.742,31.326,33.288,31.326c6.311,0,14.956-0.919,18.324-2.042l4.234-35.392H83.76
				l-1.299,10.987h10.801l-1.467,12.304c-3.456,1.026-5.622,1.326-8.813,1.326c-10.545,0-18.766-6.196-18.766-19.013
				c0-15.875,12.189-26.553,29.479-26.553c5.357,0,9.856,0.716,15.645,2.546l1.476-12.817c-4.676-1.627-10.642-2.537-17.121-2.537
				C62.758,27.561,51.25,49.933,51.25,67.426"/>
		</defs>
		<clipPath id="SVGID_11_">
			<use xlink:href="#SVGID_10_"  overflow="visible"/>
		</clipPath>
		
			<linearGradient id="SVGID_12_" gradientUnits="userSpaceOnUse" x1="-2069.8354" y1="7180.1064" x2="-2060.9963" y2="7180.1064" gradientTransform="matrix(0 3.0534 3.0534 0 -21842.6094 6388.4087)">
			<stop  offset="0" style="stop-color:#FFFFFF"/>
			<stop  offset="1" style="stop-color:#C6C7C8"/>
		</linearGradient>
		<rect x="51.25" y="27.561" clip-path="url(#SVGID_11_)" fill="url(#SVGID_12_)" width="59.567" height="71.191"/>
	</g>
	<g>
		<defs>
			<path id="SVGID_13_" d="M106.777,67.019c0,18.916,11.588,31.733,28.701,31.733c7.001,0,13.48-1.742,20.746-5.489l1.812-15.46
				c-8.468,5.693-14.691,8.132-21.426,8.132c-10.377,0-16.865-7.222-16.865-18.607c0-10.784,6.223-26.959,25.156-26.959
				c5.189,0,9.767,0.919,14.258,2.546l2.077-12.817c-5.878-1.724-10.801-2.537-15.99-2.537
				C122.511,27.561,106.777,43.727,106.777,67.019"/>
		</defs>
		<clipPath id="SVGID_14_">
			<use xlink:href="#SVGID_13_"  overflow="visible"/>
		</clipPath>
		
			<linearGradient id="SVGID_15_" gradientUnits="userSpaceOnUse" x1="-2069.8354" y1="7195.3979" x2="-2060.9963" y2="7195.3979" gradientTransform="matrix(0 3.0534 3.0534 0 -21836.3281 6388.4087)">
			<stop  offset="0" style="stop-color:#FFFFFF"/>
			<stop  offset="1" style="stop-color:#C6C7C8"/>
		</linearGradient>
		<rect x="106.777" y="27.561" clip-path="url(#SVGID_14_)" fill="url(#SVGID_15_)" width="54.458" height="71.191"/>
	</g>
	<g>
		<defs>
			<path id="SVGID_16_" d="M169.341,65.799c0-13.93,9.431-25.43,20.834-25.43c9.856,0,16.945,8.344,16.945,19.835
				c0,14.346-9.255,25.731-20.913,25.731C176.262,85.935,169.341,77.697,169.341,65.799 M156.383,66.515
				c0,19.013,12.613,32.237,29.735,32.237c19.535,0,33.96-15.663,33.96-39.564c0-18.607-11.836-31.627-29.037-31.627
				C171.073,27.561,156.383,44.028,156.383,66.515"/>
		</defs>
		<clipPath id="SVGID_17_">
			<use xlink:href="#SVGID_16_"  overflow="visible"/>
		</clipPath>
		
			<linearGradient id="SVGID_18_" gradientUnits="userSpaceOnUse" x1="-2069.8354" y1="7211.3188" x2="-2060.9963" y2="7211.3188" gradientTransform="matrix(0 3.0534 3.0534 0 -21830.7168 6388.4087)">
			<stop  offset="0" style="stop-color:#FFFFFF"/>
			<stop  offset="1" style="stop-color:#C6C7C8"/>
		</linearGradient>
		<rect x="156.383" y="27.561" clip-path="url(#SVGID_17_)" fill="url(#SVGID_18_)" width="63.695" height="71.191"/>
	</g>
	<g>
		<defs>
			<polygon id="SVGID_19_" points="273.687,28.471 253.808,72.101 244.306,28.471 230.552,28.471 211.371,97.832 223.984,97.832 
				237.305,49.623 237.473,49.623 247.841,97.832 253.808,97.832 275.676,50.949 275.853,50.949 277.665,97.832 289.766,97.832 
				286.999,28.471 			"/>
		</defs>
		<clipPath id="SVGID_20_">
			<use xlink:href="#SVGID_19_"  overflow="visible"/>
		</clipPath>
		
			<linearGradient id="SVGID_21_" gradientUnits="userSpaceOnUse" x1="-2069.7942" y1="7229.6968" x2="-2060.9551" y2="7229.6968" gradientTransform="matrix(0 3.0534 3.0534 0 -21824.9297 6388.4072)">
			<stop  offset="0" style="stop-color:#FFFFFF"/>
			<stop  offset="1" style="stop-color:#C6C7C8"/>
		</linearGradient>
		<rect x="211.371" y="28.47" clip-path="url(#SVGID_20_)" fill="url(#SVGID_21_)" width="78.395" height="69.362"/>
	</g>
</g>
</svg>
