<?xml version="1.0" standalone="no"?>
<!DOCTYPE svg PUBLIC "-//W3C//DTD SVG 20010904//EN"
 "http://www.w3.org/TR/2001/REC-SVG-20010904/DTD/svg10.dtd">
<svg version="1.0" xmlns="http://www.w3.org/2000/svg"
 width="400.000000pt" height="400.000000pt" viewBox="0 0 400.000000 400.000000"
 preserveAspectRatio="xMidYMid meet">

<g transform="translate(0.000000,400.000000) scale(0.100000,-0.100000)"
fill="#000000" stroke="none">
<path d="M1483 3742 c-17 -11 -31 -54 -24 -73 3 -9 70 -84 147 -165 78 -82
176 -185 218 -229 41 -44 76 -83 76 -87 0 -4 -270 -9 -599 -10 l-599 -3 -38
-31 c-21 -17 -49 -50 -61 -74 l-23 -43 0 -844 c0 -926 -3 -879 61 -940 70 -67
-6 -63 1351 -63 845 0 1243 3 1272 11 23 6 59 25 79 43 71 63 68 13 67 951 0
710 -3 849 -15 878 -15 37 -73 93 -112 108 -14 5 -271 9 -609 9 l-585 0 15 22
c9 12 78 87 154 167 314 331 304 319 262 361 -46 46 -53 40 -454 -387 -33 -35
-64 -63 -71 -63 -6 0 -25 15 -40 33 -33 37 -186 198 -323 340 -92 94 -117 109
-149 89z m1005 -777 c93 -21 156 -70 200 -154 l33 -64 -3 -576 c-3 -651 3
-601 -87 -691 -31 -31 -67 -55 -104 -69 -57 -21 -67 -21 -763 -21 -503 0 -719
3 -752 12 -87 21 -165 87 -202 170 -20 46 -21 61 -20 606 0 307 4 572 9 588
31 107 115 178 246 207 11 3 325 5 698 6 575 1 688 -1 745 -14z m603 4 c111
-38 141 -166 57 -247 -57 -57 -161 -52 -212 9 -68 81 -32 209 68 238 43 13 48
13 87 0z m33 -447 c95 -55 99 -185 7 -248 -62 -42 -144 -30 -201 31 -21 22
-25 36 -25 90 0 59 3 67 33 98 55 57 119 67 186 29z"/>
<path d="M2376 2517 c-38 -16 -99 -33 -135 -38 -36 -5 -76 -14 -87 -20 -23
-12 -44 -49 -44 -77 0 -10 -12 -25 -27 -33 -357 -203 -375 -212 -395 -200 -12
7 -35 10 -61 6 -38 -6 -47 -2 -104 39 -35 25 -65 46 -69 46 -3 0 -21 12 -40
26 -24 19 -34 34 -34 55 0 44 -36 75 -112 92 -37 9 -92 28 -123 43 -31 14 -58
24 -60 22 -2 -2 20 -28 49 -58 29 -30 65 -76 80 -103 34 -58 57 -71 108 -63
35 6 46 1 117 -47 119 -81 131 -92 131 -120 0 -37 46 -87 78 -87 43 1 82 42
82 87 0 12 23 31 68 56 37 20 85 48 107 62 22 14 46 28 53 31 7 4 49 28 94 55
63 38 84 46 98 39 11 -6 32 -10 49 -10 25 0 39 11 81 61 49 59 123 129 158
148 40 22 2 15 -62 -12z"/>
<path d="M689 850 c-21 -12 -32 -54 -24 -91 15 -65 119 -71 145 -9 14 33 8 71
-16 94 -17 18 -80 21 -105 6z"/>
<path d="M1863 820 c-48 -25 -68 -51 -85 -114 -18 -68 1 -119 69 -182 38 -34
54 -57 51 -70 -5 -30 -53 -30 -94 1 l-34 26 0 -81 c0 -79 1 -81 28 -91 42 -17
123 -15 160 4 83 44 115 172 62 250 -14 21 -42 49 -62 64 -25 17 -38 34 -38
48 0 41 44 40 93 -3 16 -14 17 -11 17 61 0 86 -5 93 -82 103 -32 4 -54 0 -85
-16z"/>
<path d="M236 793 c5 -32 33 -155 98 -433 l13 -55 71 -3 71 -3 16 58 c9 32 23
78 30 103 24 80 95 348 95 359 0 7 -27 11 -75 11 -41 0 -75 -2 -75 -4 0 -2
-11 -58 -25 -124 -14 -66 -25 -133 -26 -149 -1 -15 -7 10 -15 57 -7 47 -18
115 -24 153 l-12 67 -74 0 -75 0 7 -37z"/>
<path d="M3040 765 l0 -65 40 0 40 0 0 -200 0 -200 70 0 70 0 0 200 0 200 40
0 40 0 0 65 0 65 -150 0 -150 0 0 -65z"/>
<path d="M3370 819 c0 -5 4 -29 10 -52 5 -23 28 -123 50 -222 23 -99 44 -193
48 -210 8 -29 9 -30 79 -33 l71 -3 20 68 c11 37 37 130 56 205 20 75 40 147
45 160 4 13 11 40 15 61 l7 37 -75 0 -75 0 -9 -37 c-15 -62 -42 -218 -43 -249
-1 -17 -5 -7 -10 26 -5 30 -17 101 -26 158 l-17 102 -73 0 c-45 0 -73 -4 -73
-11z"/>
<path d="M965 664 c-72 -37 -111 -115 -103 -204 11 -113 72 -165 185 -158 67
4 100 25 129 80 23 44 18 48 -52 48 -52 0 -70 -4 -79 -17 -11 -15 -15 -15 -29
-4 -9 7 -16 22 -16 32 0 17 9 19 100 19 l100 0 0 29 c0 40 -27 111 -53 140
-45 49 -125 65 -182 35z m85 -99 c16 -19 4 -35 -26 -35 -26 0 -32 18 -12 38
16 16 23 15 38 -3z"/>
<path d="M2621 654 c-30 -25 -31 -25 -31 -5 0 19 -6 21 -70 21 l-70 0 2 -182
3 -183 67 -3 67 -3 3 118 c3 110 4 118 23 118 19 0 20 -8 23 -118 l3 -118 67
3 67 3 3 115 c4 146 -3 193 -34 230 -33 39 -80 41 -123 4z"/>
<path d="M2918 657 c-49 -30 -75 -65 -88 -120 -13 -59 0 -127 34 -176 32 -46
62 -61 121 -61 l45 0 0 59 c0 55 -2 61 -27 73 -23 11 -29 21 -31 56 -3 38 0
44 27 60 29 16 31 21 31 75 l0 57 -37 0 c-22 0 -54 -10 -75 -23z"/>
<path d="M670 485 l0 -186 68 3 67 3 3 183 2 182 -70 0 -70 0 0 -185z"/>
<path d="M1210 666 c0 -4 61 -251 81 -329 l10 -38 67 3 66 3 20 100 20 100 8
-55 c5 -30 12 -75 16 -100 l7 -45 66 -3 c57 -2 67 0 72 15 47 163 97 340 97
345 0 5 -31 8 -70 8 -69 0 -70 0 -71 -27 -1 -38 -36 -174 -38 -146 0 12 -6 56
-12 98 l-11 75 -63 0 -62 0 -19 -102 c-10 -57 -20 -96 -21 -88 -1 8 -7 54 -13
103 l-12 87 -69 0 c-38 0 -69 -2 -69 -4z"/>
<path d="M2070 663 c0 -15 22 -89 62 -214 l40 -125 -30 -88 -31 -87 72 3 71 3
32 95 c64 192 134 408 134 414 0 3 -31 6 -69 6 l-69 0 -10 -42 c-6 -24 -14
-63 -18 -88 l-7 -45 -9 35 c-5 19 -16 59 -24 88 l-15 52 -64 0 c-36 0 -65 -3
-65 -7z"/>
</g>
</svg>
