<?xml version="1.0" encoding="utf-8"?>
<!-- Generator: Adobe Illustrator 23.0.1, SVG Export Plug-In . SVG Version: 6.00 Build 0)  -->
<!DOCTYPE svg PUBLIC "-//W3C//DTD SVG 1.1//EN" "http://www.w3.org/Graphics/SVG/1.1/DTD/svg11.dtd" [
	<!ENTITY ns_extend "http://ns.adobe.com/Extensibility/1.0/">
	<!ENTITY ns_ai "http://ns.adobe.com/AdobeIllustrator/10.0/">
	<!ENTITY ns_graphs "http://ns.adobe.com/Graphs/1.0/">
	<!ENTITY ns_vars "http://ns.adobe.com/Variables/1.0/">
	<!ENTITY ns_imrep "http://ns.adobe.com/ImageReplacement/1.0/">
	<!ENTITY ns_sfw "http://ns.adobe.com/SaveForWeb/1.0/">
	<!ENTITY ns_custom "http://ns.adobe.com/GenericCustomNamespace/1.0/">
	<!ENTITY ns_adobe_xpath "http://ns.adobe.com/XPath/1.0/">
]>
<svg version="1.1" id="Livello_1" xmlns:x="&ns_extend;" xmlns:i="&ns_ai;" xmlns:graph="&ns_graphs;"
	 xmlns="http://www.w3.org/2000/svg" xmlns:xlink="http://www.w3.org/1999/xlink" x="0px" y="0px" viewBox="0 0 1514.914 1078"
	 enable-background="new 0 0 1514.914 1078" xml:space="preserve">
<metadata>
	<sfw  xmlns="&ns_sfw;">
		<slices></slices>
		<sliceSourceBounds  bottomLeftOrigin="true" height="1078" width="1514.914" x="0" y="-1068"></sliceSourceBounds>
	</sfw>
</metadata>
<g>
	<rect fill="#59662B" width="1078" height="1078"/>
	<path fill="#FFFFFF" d="M320.277,464.5c0,45.756-40.176,52.5-75.888,52.5H234V412h10.389
		C280.101,412,320.277,418.744,320.277,464.5z M474.285,749L342.039,576.551c59.706-10.602,92.07-60.847,92.07-118.879
		c0-89.838-63.054-129.671-146.196-129.671H124v421h110V587h0.903l103.229,162H474.285z M692.1,607.817
		c0,36.626-24.23,64.801-65.928,64.801c-41.698,0-65.927-28.175-65.927-64.801c0-35.5,24.229-65.363,65.927-65.363
		C667.87,542.454,692.1,572.317,692.1,607.817z M791,463H689v28.177c-22-25.357-56.489-37.747-89.734-37.747
		c-85.65,0-144.956,71.004-144.956,153.838c0,82.832,60.293,154.405,145.942,154.405c33.809,0,69.309-12.673,87.34-41.673H689v32
		h102V463z M952,751H850V465h102V751z M900.936,411.899c-31.248,0-56.916-25.668-56.916-56.916
		c0-31.248,25.668-56.915,56.916-56.915c31.248,0,56.916,25.668,56.916,56.915C957.852,386.231,932.185,411.899,900.936,411.899z"/>
	<path fill="#59662B" d="M1187.059,642.266h110.962c4.734,8.285,11.438,14.896,20.121,19.825c8.678,4.934,17.754,7.397,27.223,7.397
		c18.146,0,33.09-5.668,44.828-17.015c11.734-11.341,17.606-26.085,17.606-44.236c0-15.779-5.724-29.095-17.162-39.946
		c-11.443-10.847-25.351-16.274-41.722-16.274c-13.611,0-25.202,3.209-34.768,9.617c-9.571,6.412-17.311,16.523-23.229,30.329
		l-87.29-24.264l39.354-241.157h236.127v86.106h-153.275l-13.315,65.394c8.678-4.929,18.244-8.877,28.702-11.836
		c10.453-2.959,21.105-4.438,31.957-4.438c41.818,0,75.898,13.81,102.232,41.426c26.336,27.62,39.503,63.424,39.503,107.411
		c0,45.568-15.239,82.852-45.716,111.85c-30.479,28.998-70.18,43.497-119.1,43.497c-43.992,0-79.744-10.505-107.264-31.513
		C1215.317,713.429,1196.722,682.707,1187.059,642.266z"/>
</g>
</svg>
