<?xml version="1.0" encoding="utf-8"?>
<!-- Generator: Adobe Illustrator 23.0.1, SVG Export Plug-In . SVG Version: 6.00 Build 0)  -->
<!DOCTYPE svg PUBLIC "-//W3C//DTD SVG 1.1//EN" "http://www.w3.org/Graphics/SVG/1.1/DTD/svg11.dtd" [
	<!ENTITY ns_extend "http://ns.adobe.com/Extensibility/1.0/">
	<!ENTITY ns_ai "http://ns.adobe.com/AdobeIllustrator/10.0/">
	<!ENTITY ns_graphs "http://ns.adobe.com/Graphs/1.0/">
	<!ENTITY ns_vars "http://ns.adobe.com/Variables/1.0/">
	<!ENTITY ns_imrep "http://ns.adobe.com/ImageReplacement/1.0/">
	<!ENTITY ns_sfw "http://ns.adobe.com/SaveForWeb/1.0/">
	<!ENTITY ns_custom "http://ns.adobe.com/GenericCustomNamespace/1.0/">
	<!ENTITY ns_adobe_xpath "http://ns.adobe.com/XPath/1.0/">
]>
<svg version="1.1" id="Livello_1" xmlns:x="&ns_extend;" xmlns:i="&ns_ai;" xmlns:graph="&ns_graphs;"
	 xmlns="http://www.w3.org/2000/svg" xmlns:xlink="http://www.w3.org/1999/xlink" x="0px" y="0px" viewBox="0 0 2516.4 1076.4"
	 style="enable-background:new 0 0 2516.4 1076.4;" xml:space="preserve">
<style type="text/css">
	.st0{fill:#02AD45;}
	.st1{fill:#FFFFFF;}
	.st2{fill:#FE0000;}
	.st3{fill:#FFB502;}
	.st4{fill:#05D5EC;}
</style>
<metadata>
	<sfw  xmlns="&ns_sfw;">
		<slices></slices>
		<sliceSourceBounds  bottomLeftOrigin="true" height="1076.4" width="2516.4" x="0" y="0"></sliceSourceBounds>
	</sfw>
</metadata>
<g>
	<rect y="0" class="st0" width="1076.4" height="1076.4"/>
	<path class="st1" d="M849.1,463.4h101.8v286.8H849.1V463.4z M473.9,750.2H337.5L234.1,588.1h-1.1v162.1H123.4V328.7h163.8
		c83.3,0,146.4,39.7,146.4,129.7c0,58.1-32.4,108.4-92.2,119.1L473.9,750.2z M243.6,517.7c35.8,0,76-6.7,76-52.6
		c0-45.8-40.3-52.5-76-52.5h-10.6v105.1H243.6 M790.5,463.4v286.8H688.8v-31.8h-1.1c-17.9,28.5-53.1,41.3-86.7,41.3
		c-85,0-144.8-71-144.8-153.2c0-82.2,58.7-152.6,143.7-152.6c33,0,67.7,12.3,88.9,37.4v-27.9L790.5,463.4L790.5,463.4z M626.7,671.4
		c41.4,0,65.4-28,65.4-64.3c0-35.3-24-64.9-65.4-64.9c-41.4,0-65.4,29.6-65.4,64.9C561.3,643.4,585.3,671.4,626.7,671.4 M900,410.3
		c31.3,0,57-25.7,57-57c0-31.3-25.7-57-57-57c-31.3,0-57,25.7-57,57C842.9,384.6,868.7,410.3,900,410.3"/>
	<polygon class="st2" points="1444.5,666.4 1444.5,754.7 1259.5,754.7 1259.5,666.4 1300.9,666.4 1300.9,596.8 1204.9,415.4 
		1173.6,415.4 1173.6,327.7 1336.9,327.7 1336.9,415.4 1310.6,415.4 1356.8,505.5 1399.4,415.4 1373,415.4 1373,327.7 1536.3,327.7 
		1536.3,415.4 1505.7,415.4 1406,596.8 1406,666.4 	"/>
	<path class="st3" d="M1535.3,466.4c33-32.4,77.5-50.4,125.5-50.4c48,0,91.9,18,124.9,50.4c33,32.4,50.4,74.5,50.4,123.1
		c0,48-17.4,90.7-50.4,123.1c-33,32.4-76.8,49.8-124.9,49.8c-48,0-92.5-17.4-125.5-49.8c-33-32.4-50.4-75-50.4-123.1
		C1484.9,541.5,1502.3,498.9,1535.3,466.4 M1660.8,671.2c42,0,76.3-36,76.3-81.6c0-46.3-33.7-81.7-76.3-81.7
		c-42,0-76.9,35.4-76.9,81.7C1584,635.2,1618.8,671.2,1660.8,671.2"/>
	<polygon class="st0" points="2020.6,511.5 2020.6,425 2171.3,425 2171.3,511.5 2142.5,511.5 2025.3,802.5 2062.7,802.5 
		2062.7,883.1 1909,883.1 1909,802.5 1940.3,802.5 1957.7,743.5 1863.3,511.5 1834.5,511.5 1834.5,425 1987,425 1987,511.5 
		1961.2,511.5 2003.2,629.9 2046.4,511.5 	"/>
	<path class="st4" d="M2215.5,466.4c33-32.4,77.5-50.4,125.5-50.4c48,0,91.9,18,124.9,50.4c33.1,32.4,50.4,74.5,50.4,123.1
		c0,48-17.4,90.7-50.4,123.1c-33,32.4-76.9,49.8-124.9,49.8c-48,0-92.5-17.4-125.5-49.8c-33-32.4-50.4-75-50.4-123.1
		C2165.1,541.5,2182.6,498.9,2215.5,466.4 M2341,671.2c42,0,76.3-36,76.3-81.6c0-46.3-33.6-81.7-76.3-81.7
		c-42,0-76.9,35.4-76.9,81.7C2264.2,635.2,2299,671.2,2341,671.2"/>
</g>
</svg>
