<?xml version="1.0" encoding="utf-8"?>
<!-- Generator: Adobe Illustrator 16.0.0, SVG Export Plug-In . SVG Version: 6.00 Build 0)  -->
<!DOCTYPE svg PUBLIC "-//W3C//DTD SVG 1.1//EN" "http://www.w3.org/Graphics/SVG/1.1/DTD/svg11.dtd">
<svg version="1.1"
	 id="svg2" xmlns:dc="http://purl.org/dc/elements/1.1/" xmlns:cc="http://creativecommons.org/ns#" xmlns:rdf="http://www.w3.org/1999/02/22-rdf-syntax-ns#" xmlns:svg="http://www.w3.org/2000/svg" xmlns:inkscape="http://www.inkscape.org/namespaces/inkscape"
	 xmlns="http://www.w3.org/2000/svg" xmlns:xlink="http://www.w3.org/1999/xlink" x="0px" y="0px" width="563.175px"
	 height="345.438px" viewBox="0 0 563.175 345.438" enable-background="new 0 0 563.175 345.438" xml:space="preserve">
<g id="g10" transform="matrix(1.25,0,0,-1.25,0,345.4375)">
	<g id="g12" transform="scale(0.1,0.1)">
		<path id="path14" inkscape:connector-curvature="0" fill="#EF2F2C" d="M2327.215,2422.982c0,0-386.215-27.609-319.293-428.304
			c56.457-337.906,355.879-297.969,355.879-297.969s304.789,18.008,295.602,405.32
			C2652.511,2393.427,2346.269,2436.748,2327.215,2422.982"/>
		<path id="path16_1_" inkscape:connector-curvature="0" fill="#162A61" d="M3849.058,1199.045l-174.844-23.359"/>
		<path id="path16" inkscape:connector-curvature="0" fill="#162A61" d="M3674.215,1175.685l8.922-196.625l418.344,13.359
			c-105.453-183.672-287.656-205.211-287.656-205.211s-325.609-62.336-351.828,300.281
			c-31.078,429.977,386.469,484.461,386.469,484.461c17.453,12.891,227.969-2.055,300.656-169.305l316.031,60.891
			c-75.266,551.172-589.859,488.836-589.859,488.836c-217.641-24.25-442.078-146.445-582.156-347.625l5.578,159.961l-257.922-5.57
			l-12.906-909.016l-142.188,846.367l-366.062-2.367l-66.594-1096.641l248.109,4.594l29.875,654.602l104.469-706.578h420.766
			l7.156,204.797c135.516-180.023,362.625-222.695,499.781-244.648c170.812-27.344,539.656,81.266,669,492.734l68.797,283.141
			l-651.937-87.078"/>
		<path id="path18" inkscape:connector-curvature="0" fill="#162A61" d="M1693.898,861.068c0,0-290.957-38.82-345.82,289.539
			c-0.398,2.406-0.707,4.734-1.078,7.102c-1.09,12.031-2.461,23.852-4.371,35.297c-31.789,348.906,315.711,373.82,315.711,373.82
			c18.531,13.383,316.121-28.727,322.832-311.891C1990.078,878.568,1693.898,861.068,1693.898,861.068L1693.898,861.068z
			 M836.211,1034.388C804.164,785.185,380.914,738.74,348.137,760.607l35.57,590.719
			C383.707,1351.326,886.476,1424.959,836.211,1034.388L836.211,1034.388z M497.984,2104.982c0,0,362.215,53.039,326-228.352
			c-23.086-179.531-328.016-212.992-351.629-197.242L497.984,2104.982z M2210.871,1637.443l4.258-149.891
			c-134.348,447.5-564.879,420.867-564.879,420.867c-242.32-12.672-481.469-159.664-563.301-418.258
			c-48.48,21.695-104.281,40.977-168.355,58.125c121.848,48.352,227.676,120.836,251.875,224.172
			c75.73,323.391-27.969,572.734-394.941,662.648c0,0-205,18.344-369.926,23.609c-113.801,3.633-298.547-6.734-298.547-6.734
			l-8.719-183.32l-44.598-820.844l1.828-0.102l-3.156-57.594L0,425.451c0,0,1109.441-62.078,1286.762,336.836
			c126.387-100.773,278.559-137.383,384.75-148.258c155.977-15.984,466.848,47.266,557.629,380.688l6.719-236.531l204.98,7.281
			l17.734,875.555L2210.871,1637.443"/>
		<path id="path20" inkscape:connector-curvature="0" fill="#162A61" d="M4381.777,508.154v-85.25h-16.141v85.25h-24.078v13.047
			h63.875v-13.047H4381.777"/>
		<path id="path22" inkscape:connector-curvature="0" fill="#162A61" d="M4433.246,422.904h-14.891v98.297h24.344l18.812-73.328
			l20.375,73.328h23.141v-98.297h-15.484v79.109l-22.141-79.109h-14.594l-19.562,79.109V422.904"/>
		<path id="path26_2_" inkscape:connector-curvature="0" fill="#7B7979" d="M645.219,226.92"/>
	</g>
</g>
</svg>
